<svg id="visual" viewBox="0 0 960 400" width="960" height="400" xmlns="http://www.w3.org/2000/svg" xmlns:xlink="http://www.w3.org/1999/xlink" version="1.1"><rect x="0" y="0" width="960" height="400" fill="#fff"></rect><path d="M0 71L40 71C80 71 160 71 240 82.2C320 93.3 400 115.7 480 133C560 150.3 640 162.7 720 165.7C800 168.7 880 162.3 920 159.2L960 156L960 401L920 401C880 401 800 401 720 401C640 401 560 401 480 401C400 401 320 401 240 401C160 401 80 401 40 401L0 401Z" fill="#edf2f7"></path><path d="M0 162L40 163.5C80 165 160 168 240 179.8C320 191.7 400 212.3 480 209.7C560 207 640 181 720 169C800 157 880 159 920 160L960 161L960 401L920 401C880 401 800 401 720 401C640 401 560 401 480 401C400 401 320 401 240 401C160 401 80 401 40 401L0 401Z" fill="#d7dbdf"></path><path d="M0 269L40 260.7C80 252.3 160 235.7 240 234C320 232.3 400 245.7 480 248.3C560 251 640 243 720 244.7C800 246.3 880 257.7 920 263.3L960 269L960 401L920 401C880 401 800 401 720 401C640 401 560 401 480 401C400 401 320 401 240 401C160 401 80 401 40 401L0 401Z" fill="#c2c5c7"></path><path d="M0 261L40 271.5C80 282 160 303 240 312.2C320 321.3 400 318.7 480 318.3C560 318 640 320 720 317.3C800 314.7 880 307.3 920 303.7L960 300L960 401L920 401C880 401 800 401 720 401C640 401 560 401 480 401C400 401 320 401 240 401C160 401 80 401 40 401L0 401Z" fill="#adafb0"></path><path d="M0 343L40 341C80 339 160 335 240 329C320 323 400 315 480 311.7C560 308.3 640 309.7 720 311C800 312.3 880 313.7 920 314.3L960 315L960 401L920 401C880 401 800 401 720 401C640 401 560 401 480 401C400 401 320 401 240 401C160 401 80 401 40 401L0 401Z" fill="#999999"></path></svg>